<svg xmlns="http://www.w3.org/2000/svg" xmlns:xlink="http://www.w3.org/1999/xlink" x="0px" y="0px" width="64px" height="64px" viewBox="0 0 64 64"><g  transform="translate(0.5, 0.5)">
<path fill="none" stroke="#2c3f65" stroke-width="1" stroke-linecap="square" stroke-miterlimit="10" d="M8,37V9
c0-2.209,1.791-4,4-4h40c2.209,0,4,1.791,4,4v19" stroke-linejoin="miter"/>
<line fill="none" stroke="#2c3f65" stroke-width="1" stroke-linecap="square" stroke-miterlimit="10" x1="30" y1="11" x2="34" y2="11" stroke-linejoin="miter"/>
<path fill="none" stroke="#2c3f65" stroke-width="1" stroke-linecap="square" stroke-miterlimit="10" d="M30,43H2
c0,4.418,3.582,8,8,8h20" stroke-linejoin="miter"/>
<circle data-color="color-2" fill="none" stroke="#56bc43" stroke-width="1" stroke-linecap="square" stroke-miterlimit="10" cx="49" cy="47" r="3" stroke-linejoin="miter"/>
<path data-color="color-2" fill="none" stroke="#56bc43" stroke-width="1" stroke-linecap="square" stroke-miterlimit="10" d="M58,47
c0-0.44-0.042-0.87-0.103-1.293l3.362-3.475l-2-3.464l-4.686,1.173c-0.677-0.535-1.432-0.974-2.246-1.298L51,34h-4l-1.326,4.643
c-0.814,0.324-1.569,0.763-2.246,1.298l-4.686-1.173l-2,3.464l3.362,3.475C40.042,46.13,40,46.56,40,47
c0,0.44,0.042,0.87,0.103,1.293l-3.362,3.475l2,3.464l4.686-1.173c0.677,0.535,1.432,0.974,2.246,1.298L47,60h4l1.326-4.643
c0.814-0.324,1.569-0.763,2.246-1.298l4.686,1.173l2-3.464l-3.362-3.475C57.958,47.87,58,47.44,58,47z" stroke-linejoin="miter"/>
</g></svg>