<svg xmlns="http://www.w3.org/2000/svg" xmlns:xlink="http://www.w3.org/1999/xlink" x="0px" y="0px" width="64px" height="64px" viewBox="0 0 64 64"><g  transform="translate(0.5, 0.5)">
<path data-cap="butt" data-color="color-2" fill="none" stroke="#56bc43" stroke-width="1" stroke-miterlimit="10" d="M39.3,27.3L56,44
c3.3,3.3,3.3,8.7,0,12l0,0c-3.3,3.3-8.7,3.3-12,0L28.1,40.1" stroke-linejoin="miter" stroke-linecap="butt"/>
<polyline data-cap="butt" data-color="color-2" fill="none" stroke="#56bc43" stroke-width="1" stroke-miterlimit="10" points="28.4,24.4 20,16 
20,11.5 11.5,3 3,11.5 11.5,20 16,20 24.2,28.2 " stroke-linejoin="miter" stroke-linecap="butt"/>
<line data-color="color-2" fill="none" stroke="#56bc43" stroke-width="1" stroke-linecap="square" stroke-miterlimit="10" x1="40" y1="40" x2="48" y2="48" stroke-linejoin="miter"/>
<polyline data-cap="butt" fill="none" stroke="#2c3f65" stroke-width="1" stroke-miterlimit="10" points="43.9,22.2 14,56 4,46 
37.8,16.1 " stroke-linejoin="miter" stroke-linecap="butt"/>
<path fill="none" stroke="#2c3f65" stroke-width="1" stroke-linecap="square" stroke-miterlimit="10" d="M57.4,19.6l-2.1,2.1l-4-4
l2.1-2.1L43.1,5.3C38.6,0.9,31.4,0.9,27,5.3l18.3,18.3l2.4-2.4l4,4l-2.4,2.4l3.5,3.5l8-8L57.4,19.6z" stroke-linejoin="miter"/>
</g></svg>