<svg xmlns="http://www.w3.org/2000/svg" width="24" height="24" viewBox="0 0 24 24"><g transform="translate(.5 .5)" fill="none" stroke-linecap="square" stroke-miterlimit="10"><path stroke="#2c3f68" d="M23 12c0-1.105-.895-2-2-2h-1.262c-.19-.732-.477-1.422-.852-2.058l.892-.892c.78-.78.78-2.047 0-2.828-.78-.78-2.047-.78-2.828 0l-.892.892c-.636-.375-1.326-.663-2.058-.852V3c0-1.104-.895-2-2-2s-2 .895-2 2v1.262c-.732.19-1.422.477-2.058.852l-.892-.892c-.78-.78-2.047-.78-2.828 0-.78.78-.78 2.047 0 2.828l.892.892C4.74 8.578 4.45 9.268 4.262 10H3c-1.104 0-2 .895-2 2s.895 2 2 2h1.262c.19.732.477 1.422.852 2.058l-.892.892c-.78.78-.78 2.047 0 2.828.78.78 2.047.78 2.828 0l.892-.892c.635.375 1.326.663 2.058.852V21c0 1.104.895 2 2 2s2-.895 2-2v-1.262c.732-.19 1.422-.477 2.058-.852l.892.892c.78.78 2.047.78 2.828 0 .78-.78.78-2.047 0-2.828l-.892-.892c.375-.635.663-1.326.852-2.058H21c1.104 0 2-.895 2-2z"/><circle data-color="color-2" stroke="#52c03b" cx="12" cy="12" r="3"/></g></svg>