<svg xmlns="http://www.w3.org/2000/svg" xmlns:xlink="http://www.w3.org/1999/xlink" x="0px" y="0px" width="16px" height="16px" viewBox="0 0 16 16"><g ><path fill="#2c3f68" d="M12.8,12.2C11.9,12.7,11,13,10,13c-2,0-3.8-1.2-4.6-3H9c0.6,0,1-0.4,1-1S9.6,8,9,8H5c0-0.3,0-0.7,0.1-1H9&#10;&#9;c0.6,0,1-0.4,1-1S9.6,5,9,5H6c0.9-1.2,2.3-2,4-2c1,0,1.9,0.3,2.8,0.8c0.5,0.3,1.1,0.2,1.4-0.3c0.3-0.5,0.2-1.1-0.3-1.4&#10;&#9;C12.7,1.4,11.4,1,10,1C7.2,1,4.8,2.6,3.7,5H2C1.4,5,1,5.4,1,6s0.4,1,1,1h1.1C3,7.3,3,7.7,3,8H2C1.4,8,1,8.4,1,9s0.4,1,1,1h1.3&#10;&#9;c0.9,2.9,3.5,5,6.7,5c1.4,0,2.7-0.4,3.9-1.2c0.5-0.3,0.6-0.9,0.3-1.4C13.8,12,13.2,11.9,12.8,12.2z"/></g></svg>