<svg xmlns="http://www.w3.org/2000/svg" xmlns:xlink="http://www.w3.org/1999/xlink" x="0px" y="0px" width="24px" height="24px" viewBox="0 0 24 24"><g  transform="translate(0, 0)">
<path fill="none" stroke="#2c3f68" stroke-width="2" stroke-linecap="square" stroke-miterlimit="10" d="M19,23H5c-2.2,0-4-1.8-4-4
V5c0-2.2,1.8-4,4-4h14c2.2,0,4,1.8,4,4v14C23,21.2,21.2,23,19,23z" stroke-linejoin="miter"/>
<circle data-color="color-2" fill="none" stroke="#46b72e" stroke-width="2" stroke-linecap="square" stroke-miterlimit="10" cx="12" cy="12" r="6" stroke-linejoin="miter"/>
<path fill="none" stroke="#2c3f68" stroke-width="2" stroke-linecap="square" stroke-miterlimit="10" d="M12,9c0,1.7-1.3,3-3,3
c0,1.7,1.3,3,3,3s3-1.3,3-3S13.7,9,12,9z" stroke-linejoin="miter"/>
<line fill="none" stroke="#2c3f68" stroke-width="2" stroke-linecap="square" stroke-miterlimit="10" x1="5" y1="5" x2="6" y2="5" stroke-linejoin="miter"/>
</g></svg>