<svg xmlns="http://www.w3.org/2000/svg" xmlns:xlink="http://www.w3.org/1999/xlink" x="0px" y="0px" width="16px" height="16px" viewBox="0 0 16 16"><g ><path fill="#2c3f68" d="M4.5,4.5c1.9-1.9,5.1-1.9,7,0c0.7,0.7,1.2,1.7,1.4,2.7l2-0.3C14.7,5.4,14,4.1,13,3.1c-2.7-2.7-7.1-2.7-9.9,0
L0.9,0.9L0.2,7.3l6.4-0.7L4.5,4.5z"/>
<path data-color="color-2" fill="#52c03b" d="M15.8,8.7L9.4,9.4l2.1,2.1c-1.9,1.9-5.1,1.9-7,0c-0.7-0.7-1.2-1.7-1.4-2.7l-2,0.3
C1.3,10.6,2,11.9,3,12.9c1.4,1.4,3.1,2,4.9,2c1.8,0,3.6-0.7,4.9-2l2.2,2.2L15.8,8.7z"/></g></svg>