<svg xmlns="http://www.w3.org/2000/svg" xmlns:xlink="http://www.w3.org/1999/xlink" x="0px" y="0px" width="24px" height="24px" viewBox="0 0 24 24"><g  transform="translate(0, 0)">
<path data-cap="butt" fill="none" stroke="#2c3f68" stroke-width="2" stroke-miterlimit="10" d="M11,13
c-2.824,0-5.329,0.638-6.975,1.193C2.81,14.604,2,15.749,2,17.032V21c0,0,9.958,0,10,0" stroke-linejoin="miter" stroke-linecap="butt"/>
<path fill="none" stroke="#2c3f68" stroke-width="2" stroke-linecap="square" stroke-miterlimit="10" d="M11,13L11,13
c-2.761,0-5-3.239-5-6V6c0-2.761,2.239-5,5-5h0c2.761,0,5,2.239,5,5v1C16,9.761,13.761,13,11,13z" stroke-linejoin="miter"/>
<line data-color="color-2" fill="none" stroke="#fff" stroke-width="2" stroke-linecap="square" stroke-miterlimit="10" x1="19" y1="16" x2="19" y2="22" stroke-linejoin="miter"/>
<line data-color="color-2" fill="none" stroke="#fff" stroke-width="2" stroke-linecap="square" stroke-miterlimit="10" x1="16" y1="19" x2="22" y2="19" stroke-linejoin="miter"/>
</g></svg>